<svg version="1.1" width="64.000000" height="64.000000" viewBox="0.000000 0.000000 64.000000 64.000000" xmlns="http://www.w3.org/2000/svg" xmlns:xlink="http://www.w3.org/1999/xlink" id="Layer_1" overflow="hidden"><path d=" M 58.452000 0.104000 L 5.551000 0.104000 C 3.839000 0.104000 2.439000 1.505000 2.439000 3.216000 L 2.439000 9.522000 C 2.439000 9.522000 2.438000 9.543000 2.436000 9.559000 C 2.538000 11.473000 3.222000 15.794000 7.350000 15.794000 C 12.037000 15.794000 15.726000 15.794000 15.726000 15.794000 L 15.726000 20.969000 C 15.726000 22.027000 16.580999 22.884001 17.641001 22.884001 L 23.396000 22.884001 C 24.469999 22.884001 25.326000 22.027000 25.326000 20.969000 L 25.326000 15.794000 L 38.223999 15.794000 C 38.223999 15.794000 43.140999 15.502000 43.140999 21.289000 L 43.140999 46.990002 C 43.140999 50.609001 40.449001 51.269001 39.029999 51.367001 L 30.462000 51.367001 C 31.371000 49.576000 31.865999 47.902000 32.095001 46.557999 C 32.358002 46.646000 32.632999 46.703999 32.925999 46.703999 C 33.700001 46.703999 34.404999 46.363998 34.882999 45.825001 C 35.006001 45.665001 35.123001 45.488998 35.237000 45.333000 C 37.361000 42.337002 37.953999 40.462002 38.118999 39.610001 C 38.126999 39.577000 38.136002 39.543999 38.136002 39.520000 C 38.144001 39.480999 38.144001 39.445999 38.153000 39.404999 C 38.160999 39.328999 38.167000 39.255001 38.175999 39.181999 C 38.187000 39.096001 38.187000 39.056999 38.187000 39.056999 C 38.194000 38.980999 38.194000 38.909000 38.194000 38.832001 C 38.194000 36.655998 36.418999 34.889000 34.237999 34.889000 C 33.543999 34.889000 32.893002 35.073002 32.326000 35.389000 L 32.326000 34.169998 C 32.326000 32.808998 31.219999 31.694000 29.848000 31.694000 L 12.123000 31.694000 C 10.752000 31.694000 9.646000 32.808998 9.646000 34.169998 L 9.646000 44.096001 C 9.646000 44.500000 9.670000 45.076000 9.762000 45.789001 L 9.762000 45.797001 C 9.938000 47.233002 10.432000 49.216999 11.515000 51.365002 L 8.250000 51.365002 C 6.253000 51.365002 5.173000 51.737999 4.845000 51.875000 C 3.921000 52.316002 2.967000 53.139000 2.601000 54.710999 C 2.561000 54.861000 2.533000 55.022999 2.508000 55.189999 C 2.491000 55.306999 2.484000 55.433998 2.475000 55.555000 C 2.466000 55.683998 2.440000 55.792999 2.440000 55.930000 L 2.440000 59.118999 C 2.440000 59.118999 2.537000 63.894001 7.132000 63.894001 L 56.240002 63.894001 C 61.188999 63.894001 61.546001 59.152000 61.563999 58.095001 L 61.563999 3.216000 C 61.563000 1.505000 60.161999 0.104000 58.452000 0.104000 Z M 32.122002 41.332001 C 32.125000 40.652000 32.136002 40.063999 32.145000 39.647999 C 32.159000 39.209999 32.166000 38.952999 32.166000 38.952999 C 32.227001 38.637001 32.369999 38.338001 32.561001 38.091999 C 32.935001 37.618999 33.518002 37.308998 34.174000 37.308998 C 35.307999 37.308998 36.230999 38.229000 36.230999 39.360001 C 36.230999 39.398998 36.230999 39.436001 36.226002 39.474998 C 36.226002 39.474998 36.226002 39.495998 36.221001 39.539001 C 36.216999 39.577999 36.212002 39.618999 36.207001 39.658001 C 36.203999 39.675999 36.203999 39.693001 36.199001 39.715000 C 36.199001 39.729000 36.195000 39.745998 36.192001 39.764000 C 36.103001 40.205002 35.796001 41.180000 34.693001 42.737000 C 34.632000 42.819000 34.574001 42.910999 34.507999 42.994999 C 34.259998 43.273998 33.896000 43.450001 33.491001 43.450001 C 32.737000 43.450001 32.122002 42.842999 32.122002 42.087002 C 32.120998 41.862000 32.120998 41.648998 32.120998 41.442001 L 32.120998 41.332001 Z" stroke="none" stroke-width="1.000000" stroke-linecap="butt" fill="#FFFFFF" fill-opacity="1.000000"/></svg>